<svg xmlns="http://www.w3.org/2000/svg" width="32" height="22" viewBox="0 0 32 22">
    <g fill="#2D3047" fill-rule="nonzero">
        <path d="M9.85 9.284c.645 0 1.179-.148 1.6-.456.42-.299.622-.796.622-1.479 0-.38-.079-.691-.202-.935a1.629 1.629 0 0 0-.562-.566 2.402 2.402 0 0 0-.809-.284 5.011 5.011 0 0 0-.943-.082H6.155v3.803H9.85v-.001zM10.107 11.749H6.166v4.478h3.886v-.015c.356 0 .696-.033 1.018-.103.326-.066.615-.182.857-.332.236-.149.438-.363.584-.645.146-.265.213-.63.213-1.061 0-.829-.247-1.426-.719-1.791-.482-.354-1.111-.531-1.898-.531z"/>
        <path d="M31.673 10.614a8.659 8.659 0 0 0-1.504-3.152 8.18 8.18 0 0 0-1.046-1.125c.113-.287.175-.6.175-.928V3.802a2.527 2.527 0 0 0-2.527-2.527h-6.444a2.527 2.527 0 0 0-2.786 2.514v.035l-.05-.107a5.653 5.653 0 0 0-1.949-2.23c-.716-.476-1.563-.825-2.53-1.039A12.546 12.546 0 0 0 10.32.182c-.067 0-.134.002-.199.008H2.527A2.527 2.527 0 0 0 0 2.717v16.31a2.527 2.527 0 0 0 2.527 2.527h8.054c.944 0 1.885-.123 2.794-.365 1.023-.272 1.93-.687 2.679-1.222.369-.259.705-.55 1.008-.868.081.093.165.185.252.275a8.17 8.17 0 0 0 2.811 1.833c1.065.412 2.198.612 3.463.612 1.851 0 3.477-.445 4.815-1.311 1.48-.941 2.552-2.423 3.185-4.404.11-.345.376-1.729.394-2.112.061-1.227-.041-2.333-.309-3.378zm-15.768 5.792a4.12 4.12 0 0 1-1.303 1.493c-.539.385-1.179.663-1.876.848a8.355 8.355 0 0 1-2.145.281H2.527V2.717h7.793v-.008c.788 0 1.505.066 2.156.208.648.144 1.202.365 1.668.674.461.31.823.719 1.078 1.238.253.52.382 1.161.382 1.913 0 .818-.191 1.504-.569 2.056-.38.553-.94.995-1.687 1.349 1.018.287 1.77.796 2.271 1.515.503.73.747 1.603.747 2.609 0 .83-.146 1.538-.461 2.135zm4.164-12.603h6.703v1.608h-6.703V3.803zm9.391 10.066h-8.637c0 .929.314 1.804.797 2.283l-.047.018c.493.462 1.197.697 2.108.697.663 0 1.235-.164 1.718-.494.476-.321.764-.674.876-1.039h2.907c-.453 1.415-1.177 2.432-2.134 3.04-.955.619-2.116.918-3.459.918-.94 0-1.779-.144-2.552-.442a5.58 5.58 0 0 1-1.932-1.26 5.64 5.64 0 0 1-1.21-1.957c-.284-.763-.419-1.603-.419-2.51 0-.888.152-1.703.453-2.466a5.999 5.999 0 0 1 1.258-1.979 6.099 6.099 0 0 1 1.95-1.32c.756-.331 1.572-.479 2.493-.479 1.022 0 1.898.181 2.673.578.753.376 1.37.907 1.864 1.548a6.129 6.129 0 0 1 1.056 2.233c.214.829.282 1.703.237 2.631z"/>
        <path d="M25.326 9.982v-.011l.003.004.006-.011c-.395-.426-1.056-.655-1.861-.655-.526 0-.96.082-1.31.263a2.417 2.417 0 0 0-1.271 1.481 3.86 3.86 0 0 0-.152.785h5.349c-.078-.827-.369-1.433-.76-1.864l-.004.008z"/>
    </g>
</svg>
