<svg xmlns="http://www.w3.org/2000/svg" width="32" height="32" viewBox="0 0 32 32">
    <path fill="#2D3047" fill-rule="nonzero" d="M16 32C7.178 32 0 24.823 0 16 0 7.178 7.178 0 16 0c8.823 0 16 7.178 16 16 0 8.823-7.177 16-16 16zm-7.859-5.482a13.099 13.099 0 0 0 7.858 2.625c1.7 0 3.352-.322 4.912-.956-.244-1.367-1.012-5.146-2.71-9.619-6.711 2.396-9.493 6.909-10.06 7.95zm13.148-8.703c1.456 4.082 2.171 7.5 2.418 8.82a13.199 13.199 0 0 0 5.209-8.284 20.387 20.387 0 0 0-5.232-.697c-.818 0-1.622.054-2.395.161zM2.882 16.02a13.09 13.09 0 0 0 3.113 8.474c.905-1.413 4.586-6.61 10.853-8.637.07-.023.141-.046.212-.067a46.267 46.267 0 0 0-.833-1.735c-5.881 1.716-11.57 1.851-13.19 1.851h-.154l-.001.114zm20.278-1.033c2.666 0 4.944.361 5.954.55a13.062 13.062 0 0 0-2.727-7.527c-.757.907-2.974 3.224-7.092 4.968.267.555.523 1.114.76 1.679.072.161.139.327.205.488a25.5 25.5 0 0 1 2.9-.158zM10.202 4.251a13.203 13.203 0 0 0-6.97 8.727c1.496-.006 6.206-.147 11.592-1.529a87.106 87.106 0 0 0-4.622-7.198zm3.158-1.085c.786 1.084 2.789 3.936 4.637 7.3 3.987-1.549 5.936-3.721 6.497-4.436A13.075 13.075 0 0 0 13.36 3.166z"/>
</svg>
