<svg xmlns="http://www.w3.org/2000/svg" width="32" height="28" viewBox="0 0 32 28">
    <path fill="#2D3047" fill-rule="nonzero" d="M31.167 1.374a3.61 3.61 0 0 0-2.864-1.383c-.55 0-1.096.116-1.623.346L2.83 9.684C.184 10.763-.029 12.575.002 13.303c.023.543.289 2.373 2.723 3.131l7.256 2.297 11.703 8.56.147.082c.753.422 1.506.636 2.239.636h.001c1.46 0 3.204-.896 3.716-3.398l4.057-19.424c.348-1.46.108-2.812-.677-3.813zM29.38 4.632l-4.066 19.462c-.283 1.384-1.106 1.714-2.246 1.075l-9.985-7.496L24.574 7.142c.504-.455-.111-.676-.779-.265l-14.18 9.088-6.127-1.94c-1.324-.412-1.332-1.336.297-2.001l23.872-9.355c1.089-.501 2.14.266 1.723 1.963z"/>
</svg>
