<svg xmlns="http://www.w3.org/2000/svg" width="32" height="28" viewBox="0 0 32 28">
    <path fill="#2D3047" fill-rule="nonzero" d="M31.881 4.927a2.4 2.4 0 0 0-.717-1.105 2.382 2.382 0 0 0-2.346-2.81c-.412 0-.826.106-1.198.323a9.088 9.088 0 0 1-1.737.778 7.978 7.978 0 0 0-12.526 4.95 13.533 13.533 0 0 1-7.279-4.568 2.382 2.382 0 0 0-3.893.295 7.851 7.851 0 0 0-1.09 4.016c0 .884.146 1.747.423 2.561-.3.414-.469.923-.469 1.443a7.94 7.94 0 0 0 1.988 5.247c-.044.345-.014.701.097 1.043a7.93 7.93 0 0 0 1.81 3.035 8.867 8.867 0 0 1-2.304.027 2.385 2.385 0 0 0-1.543 4.383 18.377 18.377 0 0 0 9.857 2.868c11.258 0 18.058-8.957 18.274-17.766a13.608 13.608 0 0 0 2.377-2.696c.395-.592.48-1.341.276-2.024zM26.83 8.502c.017.237.017.476.017.712 0 7.338-5.614 15.813-15.894 15.813a15.93 15.93 0 0 1-8.58-2.498c.444.05.886.076 1.328.076 2.603 0 5.021-.889 6.928-2.38a5.601 5.601 0 0 1-5.227-3.863 5.683 5.683 0 0 0 2.512-.096 5.572 5.572 0 0 1-4.48-5.458v-.068a5.582 5.582 0 0 0 2.53.696A5.558 5.558 0 0 1 3.48 6.805c0-1.033.271-1.982.756-2.798A15.845 15.845 0 0 0 15.75 9.803a5.678 5.678 0 0 1-.144-1.271c0-3.069 2.501-5.559 5.586-5.559 1.61 0 3.06.678 4.077 1.763a11.536 11.536 0 0 0 3.55-1.339 5.613 5.613 0 0 1-2.456 3.079A11.378 11.378 0 0 0 29.57 5.6l.053.023a11.26 11.26 0 0 1-2.793 2.879z"/>
</svg>
