<svg xmlns="http://www.w3.org/2000/svg" width="800" height="800" viewBox="0 0 800 800"><title>Peacebot logo icon</title><path d="M752.352,548.742c.459,5.342-2.782,12.159-7.22,15.15l-13.327,9.015c-4.438,3-8.459,9.821-8.918,15.163l-1.572,17.96c-.473,5.342-4.855,11.491-9.752,13.675l-135.4,60.446a135.449,135.449,0,0,0-16.972,9.418L440.872,769.547c-4.438,3-12.019,3.575-16.861,1.265l-15.873-7.554a19.634,19.634,0,0,0-16.276,0l-15.873,7.554c-4.841,2.31-12.423,1.739-16.861-1.265L240.81,689.569a135.449,135.449,0,0,0-16.972-9.418l-135.4-60.446c-4.9-2.184-9.279-8.333-9.752-13.675l-1.572-17.96c-.459-5.342-4.48-12.158-8.917-15.163l-13.328-9.015c-4.438-2.991-7.679-9.808-7.22-15.15L59.821,409.7a136.733,136.733,0,0,0,0-19.393L47.648,251.258c-.459-5.343,2.782-12.159,7.22-15.164l13.328-9c4.437-3,8.458-9.821,8.917-15.163l1.572-17.96c.473-5.342,4.855-11.491,9.752-13.675l135.4-60.446a135.449,135.449,0,0,0,16.972-9.418L359.128,30.453c4.438-3,12.02-3.575,16.861-1.266l15.873,7.554a19.623,19.623,0,0,0,16.276,0l15.873-7.554c4.842-2.309,12.423-1.738,16.861,1.266L559.19,110.431a135.449,135.449,0,0,0,16.972,9.418l135.4,60.446c4.9,2.184,9.279,8.333,9.752,13.675l1.572,17.96c.459,5.342,4.48,12.158,8.918,15.163l13.327,9c4.438,3,7.679,9.821,7.22,15.164L740.179,390.3a136.733,136.733,0,0,0,0,19.393Z" fill="#15cc79"/><path d="M563.113,371.579v98.1a25.972,25.972,0,0,1-25.945,25.945H262.93a25.972,25.972,0,0,1-25.946-25.945v-98.1A25.984,25.984,0,0,1,262.93,345.62H537.168A25.983,25.983,0,0,1,563.113,371.579Z" fill="#2d3047"/><path d="M579.807,411.908V371.579a42.691,42.691,0,0,0-42.639-42.653H262.93a42.691,42.691,0,0,0-42.639,42.653v40.329H159.275c0-.153.013-.306.013-.459,4.911-121.768,100.233-220.261,220.638-230.2V154.948a40.149,40.149,0,1,1,40.148,0v26.306c120.405,9.934,215.727,108.427,220.638,230.2,0,.153.014.306.014.459Z" fill="#2d3047"/><path d="M640.795,428.6c-.028.974-.069,1.948-.111,2.922A240.9,240.9,0,0,1,400,662.233c-129.628,0-235.342-102.389-240.684-230.709-.041-.974-.083-1.948-.111-2.922h61.086v41.081a42.688,42.688,0,0,0,42.639,42.639H537.168a42.688,42.688,0,0,0,42.639-42.639V428.6Z" fill="#2d3047"/><circle cx="282.149" cy="442.804" r="11.91" fill="#15cc79"/><circle cx="305.969" cy="418.983" r="11.91" fill="#15cc79"/><circle cx="353.61" cy="418.983" r="11.91" transform="translate(-168.801 585.339) rotate(-67.5)" fill="#15cc79"/><circle cx="377.431" cy="442.804" r="11.91" fill="#15cc79"/><circle cx="329.79" cy="395.163" r="11.91" fill="#15cc79"/><circle cx="422.669" cy="442.804" r="11.91" fill="#15cc79"/><circle cx="446.49" cy="418.983" r="11.91" fill="#15cc79"/><circle cx="494.13" cy="418.983" r="11.91" transform="translate(-82.055 715.162) rotate(-67.5)" fill="#15cc79"/><circle cx="517.951" cy="442.804" r="11.91" fill="#15cc79"/><circle cx="470.31" cy="395.163" r="11.91" fill="#15cc79"/></svg>