<svg xmlns="http://www.w3.org/2000/svg" xmlns:xlink="http://www.w3.org/1999/xlink" width="100%" height="100%" viewBox="0 0 100% 100%">
    <defs>
        <pattern id="a" width="300.4222" height="300.4222" patternUnits="userSpaceOnUse" viewBox="0 0 499.964 499.964">
            <rect width="499.964" height="499.964" fill="none"/>
            <path fill="#f2f2f2" d="M218.825,357.521a2,2,0,0,0-.688,2.744l9.515,15.88a2,2,0,1,0,3.431-2.057l-9.514-15.88A2,2,0,0,0,218.825,357.521Z"/>
            <path fill="#f2f2f2" d="M216.581,160.634a2,2,0,0,0-2.81.324L202.555,175.1a2,2,0,0,0,3.135,2.485l11.216-14.143A2,2,0,0,0,216.581,160.634Z"/>
            <path fill="#f2f2f2" d="M239.8,318.228a2,2,0,0,0,1.057-3.7L209.2,294.867a2,2,0,0,0-2.11,3.4l31.658,19.661A1.991,1.991,0,0,0,239.8,318.228Z"/>
            <path fill="#f2f2f2" d="M209.608,215.2a2,2,0,0,0-1.8,2.185l5.535,56.442a2,2,0,0,0,1.988,1.805,1.9,1.9,0,0,0,.2-.01,2,2,0,0,0,1.794-2.185l-5.535-56.442A1.989,1.989,0,0,0,209.608,215.2Z"/>
            <path fill="#f2f2f2" d="M308.92,172.565a2,2,0,0,0,2.8.429l20.258-14.868a2,2,0,1,0-2.367-3.224L309.349,169.77A2,2,0,0,0,308.92,172.565Z"/>
            <path fill="#f2f2f2" d="M329.579,50.4a2,2,0,0,0-1.875,2.118l2.18,35.977a2,2,0,0,0,1.994,1.879q.061,0,.123,0a2,2,0,0,0,1.875-2.118L331.7,52.277A2.012,2.012,0,0,0,329.579,50.4Z"/>
            <path fill="#f2f2f2" d="M312.383,146.9a2,2,0,0,0-2.608-1.093l-43.258,17.706a2,2,0,0,0,1.516,3.7l43.257-17.706A2,2,0,0,0,312.383,146.9Z"/>
            <path fill="#f2f2f2" d="M334.742,126.994a2,2,0,0,0-.97,2.656L355.6,176.622a2,2,0,1,0,3.627-1.686L337.4,127.965A2,2,0,0,0,334.742,126.994Z"/>
            <path fill="#f2f2f2" d="M243.734,359.671a2,2,0,0,0,3.82-1.188l-8.465-27.25a2,2,0,1,0-3.82,1.188Z"/>
            <path fill="#f2f2f2" d="M248.476,298.843l-9.425-25.093a2,2,0,1,0-3.744,1.406l9.425,25.093a2,2,0,0,0,3.744-1.406Z"/>
            <path fill="#f2f2f2" d="M281.124,237.305a2,2,0,0,0-2.516-1.291l-47.217,15.211a2,2,0,0,0,.613,3.9,1.958,1.958,0,0,0,.613-.1l47.217-15.209A2,2,0,0,0,281.124,237.305Z"/>
            <path fill="#f2f2f2" d="M267.51,299.546v-37.5a2,2,0,0,0-4,0v37.5a2,2,0,1,0,4,0Z"/>
            <path fill="#f2f2f2" d="M243,207.155a2,2,0,0,0-2.774.55l-11.4,17.033a2,2,0,0,0,3.324,2.226l11.4-17.034A2,2,0,0,0,243,207.155Z"/>
            <path fill="#f2f2f2" d="M242.8,232.2a2,2,0,0,0,2.772.566l42.094-27.821a2,2,0,1,0-2.2-3.337l-42.094,27.821A2,2,0,0,0,242.8,232.2Z"/>
            <path fill="#f2f2f2" d="M275.816,180.465v9.585a2,2,0,0,0,4,0v-9.585a2,2,0,1,0-4,0Z"/>
            <path fill="#f2f2f2" d="M335.785,110.465a2,2,0,0,0,2.709.814l20.271-10.9a2,2,0,0,0-1.895-3.524l-20.27,10.9A2,2,0,0,0,335.785,110.465Z"/>
            <path fill="#f2f2f2" d="M355.472,120.353a2,2,0,0,0,1.438,2.436l30.924,7.956a2,2,0,1,0,1-3.874l-30.923-7.956A2,2,0,0,0,355.472,120.353Z"/>
            <path fill="#f2f2f2" d="M356.247,281.789l27.48,16.488a2,2,0,1,0,2.058-3.429l-27.479-16.489a2,2,0,0,0-2.059,3.43Z"/>
            <path fill="#f2f2f2" d="M456.432,322.835A2,2,0,0,0,458.2,319.9l-19.922-37.783a2,2,0,0,0-3.539,1.865l19.921,37.784A2,2,0,0,0,456.432,322.835Z"/>
            <path fill="#f2f2f2" d="M419.31,333.728l13.289,4.35a2,2,0,0,0,1.244-3.8l-13.289-4.35a2,2,0,0,0-1.244,3.8Z"/>
            <path fill="#f2f2f2" d="M390.754,341.78a2,2,0,0,0,1.76-1.045l17.17-31.6a2,2,0,1,0-3.515-1.91L389,338.825a2,2,0,0,0,1.756,2.955Z"/>
            <path fill="#f2f2f2" d="M357.279,315.508a1.993,1.993,0,0,0,.959-.246l9.618-5.268a2,2,0,1,0-1.922-3.508l-9.618,5.268a2,2,0,0,0,.963,3.754Z"/>
            <path fill="#f2f2f2" d="M379.689,363.014a2,2,0,1,0,3.722-1.461l-14.655-37.326a2,2,0,1,0-3.722,1.461Z"/>
            <path fill="#f2f2f2" d="M387.445,90.371l-15.476,18.745a2,2,0,0,0,3.084,2.547l15.476-18.745a2,2,0,1,0-3.084-2.547Z"/>
            <path fill="#f2f2f2" d="M450.422,211.127a2,2,0,0,0,.587-3.912l-19.86-6.1a2,2,0,1,0-1.176,3.823l19.86,6.1A2.013,2.013,0,0,0,450.422,211.127Z"/>
            <path fill="#f2f2f2" d="M435.979,167.61l-47.543-5.729a2,2,0,0,0-.479,3.972l47.543,5.729a2.2,2.2,0,0,0,.242.014,2,2,0,0,0,.237-3.986Z"/>
            <path fill="#f2f2f2" d="M250.329,344.454a2,2,0,0,0,2.653.984L278.7,333.646a2,2,0,0,0-1.668-3.637L251.314,341.8A2,2,0,0,0,250.329,344.454Z"/>
            <path fill="#f2f2f2" d="M416.047,182.465a2,2,0,0,0,0-4h-6.79a2,2,0,0,0,0,4Z"/>
            <path fill="#f2f2f2" d="M469.411,167.967a2,2,0,0,0-2.668-.938l-66.075,31.7a2,2,0,1,0,1.731,3.606l66.075-31.7A2,2,0,0,0,469.411,167.967Z"/>
            <path fill="#f2f2f2" d="M440.294,260.735,402.14,286.48a2,2,0,0,0,2.238,3.317l38.155-25.745a2,2,0,1,0-2.239-3.317Z"/>
            <path fill="#f2f2f2" d="M150.345,61h-16.64a2,2,0,0,0,0,4h16.64a2,2,0,0,0,0-4Z"/>
            <path fill="#f2f2f2" d="M143.009,146.562a2,2,0,0,0-2.828.011L112.04,174.936a2,2,0,0,0,2.84,2.817l28.141-28.363A2,2,0,0,0,143.009,146.562Z"/>
            <path fill="#f2f2f2" d="M88.992,178.674a2,2,0,0,0-.792,2.715l19.43,35.455a2,2,0,1,0,3.508-1.923L91.707,179.466A2,2,0,0,0,88.992,178.674Z"/>
            <path fill="#f2f2f2" d="M252.148,377.338a1.994,1.994,0,0,0,1.425-.6l12.857-13.054a2,2,0,1,0-2.85-2.807l-12.857,13.055a2,2,0,0,0,1.425,3.4Z"/>
            <path fill="#f2f2f2" d="M118.333,135.582a2,2,0,0,0,2.7-.841l14.442-27.5a2,2,0,0,0-3.541-1.859l-14.443,27.5A2,2,0,0,0,118.333,135.582Z"/>
            <path fill="#f2f2f2" d="M151.188,334.2a2,2,0,0,0-2.775.552L132.8,358.125a2,2,0,0,0,3.326,2.223l15.615-23.375A2,2,0,0,0,151.188,334.2Z"/>
            <path fill="#f2f2f2" d="M132.7,229.315l-18.691,11.636a2,2,0,1,0,2.113,3.4l18.691-11.635a2,2,0,1,0-2.113-3.4Z"/>
            <path fill="#f2f2f2" d="M126.617,260.92a2,2,0,1,0-3.3,2.256l16.948,24.81a2,2,0,1,0,3.3-2.256Z"/>
            <path fill="#f2f2f2" d="M114.638,417.345a2,2,0,0,0,1.965,1.638,1.961,1.961,0,0,0,.363-.033l27.153-4.991a2,2,0,1,0-.722-3.934l-27.154,4.992A2,2,0,0,0,114.638,417.345Z"/>
            <path fill="#f2f2f2" d="M150.075,264.048l.095,0a2,2,0,0,0,1.905-2.092l-1.184-25.217a2,2,0,0,0-4,.187l1.183,25.218A2,2,0,0,0,150.075,264.048Z"/>
            <path fill="#f2f2f2" d="M89.284,288.858a2,2,0,0,0,1.06-.3l10.509-6.579a2,2,0,1,0-2.123-3.391l-10.509,6.579a2,2,0,0,0,1.063,3.695Z"/>
            <path fill="#f2f2f2" d="M127.127,326.827a2,2,0,0,0,1.921-2.56l-27.337-93.813a2,2,0,1,0-3.84,1.119l27.337,93.813A2,2,0,0,0,127.127,326.827Z"/>
            <path fill="#f2f2f2" d="M33.8,248.116a2,2,0,0,0-1.215,2.554l19.352,54.4a2,2,0,1,0,3.769-1.34l-19.351-54.4A2,2,0,0,0,33.8,248.116Z"/>
            <path fill="#f2f2f2" d="M73.554,248a2,2,0,1,0,0,4H85.341a2,2,0,1,0,0-4Z"/>
            <path fill="#f2f2f2" d="M62.535,191.614a2,2,0,0,0,2.711-.806l19.637-36.28a2,2,0,1,0-3.517-1.9L61.729,188.9A2,2,0,0,0,62.535,191.614Z"/>
            <path fill="#f2f2f2" d="M85.342,270.493a2,2,0,0,0,.078-4L55.542,265.31a2,2,0,0,0-.158,4l29.878,1.185Z"/>
            <path fill="#f2f2f2" d="M119.522,50.069a2,2,0,0,0-2.452,1.409l-10,37a2,2,0,1,0,3.861,1.044l10-37A2,2,0,0,0,119.522,50.069Z"/>
            <path fill="#f2f2f2" d="M298.144,235.978a2,2,0,0,0-2.425,1.456l-8.693,34.846a2,2,0,1,0,3.881.969L299.6,238.4A2,2,0,0,0,298.144,235.978Z"/>
            <path fill="#f2f2f2" d="M290.134,98.422l-5.515,22.839a2,2,0,1,0,3.889.939l5.515-22.839a2,2,0,0,0-3.889-.939Z"/>
            <path fill="#f2f2f2" d="M317.455,284.858H277.864a2,2,0,0,0,0,4h39.591a2,2,0,0,0,0-4Z"/>
            <path fill="#f2f2f2" d="M309.415,226.515a1.965,1.965,0,0,0,.435-.048,2,2,0,0,0,1.52-2.384L299.613,170.95a2,2,0,0,0-3.907.864l11.758,53.133A2,2,0,0,0,309.415,226.515Z"/>
            <path fill="#f2f2f2" d="M264.654,389.961a2,2,0,0,0,2.664-.951l27.421-57.861a2,2,0,1,0-3.616-1.712L263.7,387.3A2,2,0,0,0,264.654,389.961Z"/>
            <path fill="#f2f2f2" d="M306.638,306.6a2,2,0,0,0-2.53-1.263L266.58,317.877a2,2,0,1,0,1.268,3.793l37.527-12.539A2,2,0,0,0,306.638,306.6Z"/>
            <path fill="#f2f2f2" d="M303.786,343.391a2,2,0,0,0,2.712-.8l19.279-35.454a2,2,0,0,0-3.514-1.91l-19.278,35.454A2,2,0,0,0,303.786,343.391Z"/>
            <path fill="#f2f2f2" d="M154.713,162.094l-7.745,27.412a2,2,0,0,0,3.85,1.088l7.745-27.412a2,2,0,1,0-3.85-1.088Z"/>
            <path fill="#f2f2f2" d="M197.527,138.521a2,2,0,0,0-2.658.969L178.9,173.8a2,2,0,1,0,3.627,1.687L198.5,141.177A2,2,0,0,0,197.527,138.521Z"/>
            <path fill="#f2f2f2" d="M179.844,97,135.131,82.057a2,2,0,0,0-1.267,3.794l44.712,14.938A2,2,0,0,0,179.844,97Z"/>
            <path fill="#f2f2f2" d="M164.211,199.949a2,2,0,0,0,.606-.095l24.907-7.9a2,2,0,1,0-1.209-3.812l-24.907,7.9a2,2,0,0,0,.6,3.907Z"/>
            <path fill="#f2f2f2" d="M169.913,155.4a2,2,0,0,0,1.757-2.953l-20.378-37.639a2,2,0,1,0-3.517,1.9l20.378,37.64A2,2,0,0,0,169.913,155.4Z"/>
            <path fill="#f2f2f2" d="M209.757,120.529a2,2,0,1,0-3.2,2.4l23.77,31.625a2,2,0,0,0,3.2-2.4Z"/>
            <path fill="#f2f2f2" d="M131.773,309.888a2,2,0,0,0,1.976,1.713,2.031,2.031,0,0,0,.29-.021l16.325-2.366a2,2,0,1,0-.575-3.959l-16.324,2.366A2,2,0,0,0,131.773,309.888Z"/>
            <path fill="#f2f2f2" d="M261.773,138.093a2,2,0,0,0,1.922,1.45,1.979,1.979,0,0,0,.55-.077L319.5,123.653a2,2,0,1,0-1.1-3.845L263.146,135.62A2,2,0,0,0,261.773,138.093Z"/>
            <path fill="#f2f2f2" d="M84.842,115.423a2,2,0,1,0-3.683,1.56l13.906,32.842a2,2,0,1,0,3.683-1.56Z"/>
            <path fill="#f2f2f2" d="M26.215,189.855V147.543a2,2,0,0,0-4,0v42.312a2,2,0,0,0,4,0Z"/>
            <path fill="#f2f2f2" d="M23.26,212.279a2,2,0,1,0,2.195-3.344L0,192.223v4.785Z"/>
            <path fill="#f2f2f2" d="M79,32.48a2,2,0,0,0,1.773,2.205l65.388,7.1c.074.007.147.011.219.011a2,2,0,0,0,.213-3.988L81.2,30.708A2,2,0,0,0,79,32.48Z"/>
            <path fill="#f2f2f2" d="M15,168.609a2,2,0,0,0-2-2H0v4H13A2,2,0,0,0,15,168.609Z"/>
            <path fill="#f2f2f2" d="M89.593,447.557a2,2,0,0,0,0-4l-69.538-.173h0a2,2,0,0,0,0,4l69.538.173Z"/>
            <path fill="#f2f2f2" d="M82.338,13.449a2,2,0,0,0,1.476-.649l6.774-7.39a2,2,0,1,0-2.949-2.7L80.865,10.1a2,2,0,0,0,1.473,3.352Z"/>
            <path fill="#f2f2f2" d="M96.508,358.248a2,2,0,0,0-2.726-.75L68.4,371.933a2,2,0,1,0,1.976,3.476l25.385-14.434A2,2,0,0,0,96.508,358.248Z"/>
            <path fill="#f2f2f2" d="M96.62,333.59a2,2,0,0,0-2.61-1.091l-46.289,19a2,2,0,1,0,1.52,3.7l46.289-19A2,2,0,0,0,96.62,333.59Z"/>
            <path fill="#f2f2f2" d="M471.158,93.225c.052,0,.107,0,.161-.007a2,2,0,0,0,1.834-2.153l-3.782-47.314a2,2,0,1,0-3.986.318l3.781,47.315A2,2,0,0,0,471.158,93.225Z"/>
            <path fill="#f2f2f2" d="M458.161,331.971a2,2,0,0,0-2.732-.731l-74.88,43.28a2,2,0,1,0,2,3.462l74.88-43.279A2,2,0,0,0,458.161,331.971Z"/>
            <path fill="#f2f2f2" d="M434.254,148.564a2,2,0,0,0,2.824.147l40.87-36.836a2,2,0,0,0-2.678-2.972L434.4,145.74A2,2,0,0,0,434.254,148.564Z"/>
            <path fill="#f2f2f2" d="M10.884,471.064a2,2,0,0,0,1.459,2.423l21,5.222a2,2,0,0,0,.965-3.882l-21-5.222A2,2,0,0,0,10.884,471.064Z"/>
            <path fill="#f2f2f2" d="M200.114,38.249a2,2,0,0,0,1.892-1.355l8.286-24.3a2,2,0,1,0-3.785-1.291l-8.286,24.3a2,2,0,0,0,1.893,2.646Z"/>
            <path fill="#f2f2f2" d="M186.707,51.634a2,2,0,0,0,1.928,2.07l38.58,1.385h.072a2,2,0,0,0,.071-4l-38.58-1.385A2,2,0,0,0,186.707,51.634Z"/>
            <path fill="#f2f2f2" d="M414.668,42.167a2,2,0,0,0,2,2h38.144a2,2,0,0,0,0-4H416.668A2,2,0,0,0,414.668,42.167Z"/>
            <path fill="#f2f2f2" d="M11.658,492.528a2,2,0,0,0-2-1.982H9.64a2,2,0,0,0-1.982,2.017l.066,7.4h4Z"/>
            <path fill="#f2f2f2" d="M335.489,440.051a2,2,0,0,0-2-2H265.51a2,2,0,0,0,0,4h67.979A2,2,0,0,0,335.489,440.051Z"/>
            <path fill="#f2f2f2" d="M143.76,439.768a2,2,0,0,0,.463-3.946l-30.1-7.186a2,2,0,1,0-.929,3.89l30.1,7.187A2.032,2.032,0,0,0,143.76,439.768Z"/>
            <path fill="#f2f2f2" d="M329.941,462.288a2,2,0,0,0,.091-4l-30.544-1.42a2.023,2.023,0,0,0-2.091,1.9,2,2,0,0,0,1.905,2.091l30.544,1.42Z"/>
            <path fill="#f2f2f2" d="M454.43,416.783a2,2,0,0,0,4,0v-33.89a2,2,0,0,0-4,0Z"/>
            <path fill="#f2f2f2" d="M123.857,459.723a2,2,0,0,0-1.752,2.22l3.552,30.118a2,2,0,0,0,1.983,1.765,1.906,1.906,0,0,0,.237-.014,2,2,0,0,0,1.752-2.22l-3.552-30.117A1.993,1.993,0,0,0,123.857,459.723Z"/>
            <path fill="#f2f2f2" d="M473.917,417.437a2,2,0,0,0,2.692.871l23.355-11.937v-4.493l-25.176,12.867A2,2,0,0,0,473.917,417.437Z"/>
            <path fill="#f2f2f2" d="M22.338,435.133a2,2,0,0,0,2.613,1.083l19.966-8.262a2,2,0,0,0-1.529-3.695l-19.967,8.262A2,2,0,0,0,22.338,435.133Z"/>
            <path fill="#f2f2f2" d="M81.348,390.4l-45.957-8.434a2,2,0,0,0-.723,3.933l45.957,8.435a2.053,2.053,0,0,0,.364.033,2,2,0,0,0,.359-3.967Z"/>
            <path fill="#f2f2f2" d="M21.7,374.265a2,2,0,1,0-3.979.408l4.3,42a2,2,0,0,0,1.987,1.8,1.8,1.8,0,0,0,.206-.011A2,2,0,0,0,26,416.263Z"/>
            <path fill="#f2f2f2" d="M73.255,472.185,57.678,474.8a2,2,0,0,0,.328,3.973,1.967,1.967,0,0,0,.332-.028l15.577-2.61a2,2,0,1,0-.66-3.945Z"/>
            <path fill="#f2f2f2" d="M38.781,406.733a2,2,0,0,0,.8,2.712l49.056,26.68a2,2,0,1,0,1.91-3.514L41.492,405.932A2,2,0,0,0,38.781,406.733Z"/>
            <path fill="#f2f2f2" d="M385.292,274.4a2,2,0,0,0,.72-.134L413.371,263.7a2,2,0,1,0-1.439-3.732l-27.359,10.557a2,2,0,0,0,.719,3.867Z"/>
            <path fill="#f2f2f2" d="M348.5,190.05a2,2,0,0,0-2-2H320.08a2,2,0,0,0,0,4H346.5A2,2,0,0,0,348.5,190.05Z"/>
            <path fill="#f2f2f2" d="M330.182,207.04,315.59,244.766a2,2,0,1,0,3.731,1.443l14.591-37.726a2,2,0,1,0-3.73-1.443Z"/>
            <path fill="#f2f2f2" d="M365.136,147.661a2,2,0,0,0,2,2h42.121a2,2,0,0,0,0-4H367.136A2,2,0,0,0,365.136,147.661Z"/>
            <path fill="#f2f2f2" d="M342.073,229.42l61.626,9.126a1.972,1.972,0,0,0,.3.022,2,2,0,0,0,.29-3.979l-61.625-9.126a2,2,0,1,0-.586,3.957Z"/>
            <path fill="#f2f2f2" d="M400.57,133.579a2,2,0,0,0,1.929,1.479,1.976,1.976,0,0,0,.523-.07l43.593-11.77a2,2,0,1,0-1.043-3.861l-43.593,11.77A2,2,0,0,0,400.57,133.579Z"/>
            <path fill="#f2f2f2" d="M415.286,97.173a2,2,0,0,0-.063,2.828l14.168,14.822a2,2,0,1,0,2.891-2.764L418.114,97.237A2,2,0,0,0,415.286,97.173Z"/>
            <path fill="#f2f2f2" d="M360.374,217.334V194.119a2,2,0,0,0-4,0v23.215a2,2,0,1,0,4,0Z"/>
            <path fill="#f2f2f2" d="M454.814,90.593a2,2,0,0,0,1.762-2.943l-8.719-16.315a2,2,0,0,0-3.528,1.886l8.719,16.315A2,2,0,0,0,454.814,90.593Z"/>
            <path fill="#f2f2f2" d="M402.5,70.278a2,2,0,0,0-2,2v43.343a2,2,0,0,0,4,0V72.278A2,2,0,0,0,402.5,70.278Z"/>
            <path fill="#f2f2f2" d="M389.109,252a2,2,0,0,0,.343-3.97l-8.7-1.526a2,2,0,1,0-.691,3.939l8.7,1.527A2.062,2.062,0,0,0,389.109,252Z"/>
            <path fill="#f2f2f2" d="M364.9,256.517v11.65a2,2,0,0,0,4,0v-11.65a2,2,0,0,0-4,0Z"/>
            <path fill="#f2f2f2" d="M430.092,226.8a2,2,0,0,0-1.294,2.515l5.037,15.721a2,2,0,0,0,1.905,1.39,2.025,2.025,0,0,0,.61-.095,2,2,0,0,0,1.294-2.516l-5.037-15.72A2,2,0,0,0,430.092,226.8Z"/>
            <path fill="#f2f2f2" d="M373.732,219.016l56.377.185h.007a2,2,0,0,0,.006-4l-56.377-.185h-.006a2,2,0,0,0-.007,4Z"/>
            <path fill="#f2f2f2" d="M375.739,203.024V157.906a2,2,0,0,0-4,0v45.118a2,2,0,0,0,4,0Z"/>
            <path fill="#f2f2f2" d="M222.5,409.9l-9.131,31.453a2,2,0,1,0,3.841,1.115l9.132-31.452A2,2,0,1,0,222.5,409.9Z"/>
            <path fill="#f2f2f2" d="M54.316,251.638a2,2,0,0,0,2.785-.491l26.614-37.973a2,2,0,0,0-3.275-2.3L53.826,248.852A2,2,0,0,0,54.316,251.638Z"/>
            <path fill="#f2f2f2" d="M444.469,354.611v21.64a2,2,0,0,0,4,0v-21.64a2,2,0,0,0-4,0Z"/>
            <path fill="#f2f2f2" d="M55.465,217.883a2,2,0,0,0,1.734-3L42.273,188.86a2,2,0,0,0-3.471,1.991l14.926,26.027A2,2,0,0,0,55.465,217.883Z"/>
            <path fill="#f2f2f2" d="M255.283,412.458a2,2,0,0,0,1.128-3.652l-51.834-35.342a2,2,0,1,0-2.253,3.305l51.834,35.341A1.983,1.983,0,0,0,255.283,412.458Z"/>
            <path fill="#f2f2f2" d="M178.332,121.09a2,2,0,0,0,2.744.686l35.291-21.169a2,2,0,0,0-2.057-3.431l-35.291,21.17A2,2,0,0,0,178.332,121.09Z"/>
            <path fill="#f2f2f2" d="M364.331,406.791a2,2,0,0,0-.419,2.8L383.148,435.6a2,2,0,0,0,3.217-2.378L367.129,407.21A2,2,0,0,0,364.331,406.791Z"/>
            <path fill="#f2f2f2" d="M246.469,137.543v-7.958a2,2,0,0,0-4,0v7.958a2,2,0,0,0,4,0Z"/>
            <path fill="#f2f2f2" d="M270.506,78.072a2,2,0,0,0,1.156,2.581L323.1,100.27a2,2,0,1,0,1.426-3.737l-51.44-19.617A2,2,0,0,0,270.506,78.072Z"/>
            <path fill="#f2f2f2" d="M291.918,72.718l.075,0a2,2,0,0,0,.074-4l-5.886-.218a2,2,0,1,0-.148,4Z"/>
            <path fill="#f2f2f2" d="M238.283,93.111a2,2,0,1,0,2.144-3.376L209.366,70a2,2,0,1,0-2.145,3.376Z"/>
            <path fill="#f2f2f2" d="M312.533,81.555V63a2,2,0,0,0-4,0V81.555a2,2,0,0,0,4,0Z"/>
            <path fill="#f2f2f2" d="M218.3,193.981a2,2,0,0,0,1.99,1.828c.058,0,.117,0,.175-.008l43.405-3.759a2,2,0,0,0-.345-3.985l-43.406,3.759A2,2,0,0,0,218.3,193.981Z"/>
            <path fill="#f2f2f2" d="M241.108,178.185a2,2,0,0,0,2.623-1.058l9.342-21.955a2,2,0,0,0-3.68-1.566l-9.342,21.955A2,2,0,0,0,241.108,178.185Z"/>
            <path fill="#f2f2f2" d="M415.249,70.868a2,2,0,0,0,.01,2.829L453.4,111.59a2,2,0,1,0,2.818-2.838L418.077,70.859A2,2,0,0,0,415.249,70.868Z"/>
            <path fill="#f2f2f2" d="M32.484,110.665a2,2,0,0,0,.669-3.886L0,95.015V99.26l31.815,11.289A2.009,2.009,0,0,0,32.484,110.665Z"/>
            <path fill="#f2f2f2" d="M469.027,23.552a2,2,0,0,0,3.91-.844L468.038,0h-4.093Z"/>
            <path fill="#f2f2f2" d="M489.5,0l-.069,6.408a2,2,0,0,0,1.978,2.022h.022a2,2,0,0,0,2-1.979L493.5,0Z"/>
            <path fill="#f2f2f2" d="M429.5.357a2,2,0,0,0,.307,2.812l11.88,9.543a2,2,0,0,0,2.506-3.118L432.309.051c-.025-.02-.053-.033-.078-.051h-2.348A2,2,0,0,0,429.5.357Z"/>
            <path fill="#f2f2f2" d="M476.817,16.046a2,2,0,0,0,1.4,2.459l21.75,5.986V20.343l-20.688-5.695A2,2,0,0,0,476.817,16.046Z"/>
            <path fill="#f2f2f2" d="M400.5,51.114a2,2,0,1,0,3.846,1.1L419.244,0h-4.159Z"/>
            <path fill="#f2f2f2" d="M478.652,126.264a2,2,0,0,0,2.634,1.029l18.678-8.186V114.74l-20.283,8.889A2,2,0,0,0,478.652,126.264Z"/>
            <path fill="#f2f2f2" d="M482.232,39.262a2,2,0,0,0,1.64,2.3l16.092,2.713V40.223l-15.428-2.6A2,2,0,0,0,482.232,39.262Z"/>
            <path fill="#f2f2f2" d="M499.964,76.257,482.5,72.534a2,2,0,0,0-.834,3.912l18.3,3.9Z"/>
            <path fill="#f2f2f2" d="M262.369,6.055a2,2,0,1,0,1.938,3.5L281.557,0H273.3Z"/>
            <path fill="#f2f2f2" d="M176.715,35.869a2,2,0,0,0,1.584,2.343,2.085,2.085,0,0,0,.382.037,2,2,0,0,0,1.962-1.622L187.722,0h-4.075Z"/>
            <path fill="#f2f2f2" d="M106.893,21.482a2,2,0,0,0,2,1.982h.018a2,2,0,0,0,1.982-2.018L110.7,0h-4Z"/>
            <path fill="#f2f2f2" d="M330.121,9.892a2,2,0,0,0,2.612,3.03L347.726,0H341.6Z"/>
            <path fill="#f2f2f2" d="M156.045,8.138a2,2,0,0,0,3.233-2.357L155.061,0h-4.952Z"/>
            <path fill="#f2f2f2" d="M308.892,29.091a2,2,0,0,0,2,1.969h.032a2,2,0,0,0,1.969-2.032L312.441,0h-4Z"/>
            <path fill="#f2f2f2" d="M488.752,142.528a2,2,0,0,0,2.594,1.13l8.618-3.39v-4.3l-10.083,3.965A2,2,0,0,0,488.752,142.528Z"/>
            <path fill="#f2f2f2" d="M237.922,6.724a2,2,0,0,0,4,0V0h-4Z"/>
            <path fill="#f2f2f2" d="M224.513,13.054a2,2,0,1,0,2.719-2.933L216.31,0h-5.884Z"/>
            <path fill="#f2f2f2" d="M430.942,441.974a2,2,0,0,0,.921-3.777L394.5,418.877a2,2,0,0,0-1.838,3.553l37.362,19.32A1.992,1.992,0,0,0,430.942,441.974Z"/>
            <path fill="#f2f2f2" d="M444.206,492.95a2,2,0,0,0,3.309-2.248l-10.229-15.057a2,2,0,1,0-3.308,2.248Z"/>
            <path fill="#f2f2f2" d="M434.511,402.4a2,2,0,0,0,.212-3.988l-51.752-5.585a2,2,0,0,0-.43,3.977l51.752,5.585A2.014,2.014,0,0,0,434.511,402.4Z"/>
            <path fill="#f2f2f2" d="M420.38,446.721a2,2,0,0,0-2.435-1.44l-45.318,11.65a2,2,0,0,0,.5,3.937,2.048,2.048,0,0,0,.5-.062l45.318-11.65A2,2,0,0,0,420.38,446.721Z"/>
            <path fill="#f2f2f2" d="M329.777,492.748a2,2,0,0,0,2.788-.476l35.941-50.716a2,2,0,0,0-3.264-2.313L329.3,489.96A2,2,0,0,0,329.777,492.748Z"/>
            <path fill="#f2f2f2" d="M369.565,492.715a2,2,0,0,0,3.427-2.063l-8.808-14.631a2,2,0,0,0-3.428,2.062Z"/>
            <path fill="#f2f2f2" d="M374.21,476.768l33.811,20.741a2,2,0,0,0,2.092-3.41L376.3,473.357a2,2,0,0,0-2.092,3.411Z"/>
            <path fill="#f2f2f2" d="M493.588,428.449a2.005,2.005,0,0,0-2.2-1.78l-50.468,5.292a2,2,0,0,0,.206,3.989c.071,0,.141,0,.212-.011l50.468-5.292A2,2,0,0,0,493.588,428.449Z"/>
            <path fill="#f2f2f2" d="M494.314,243.512a2,2,0,0,0-2.828.019L469.412,265.9a2,2,0,1,0,2.848,2.809l22.073-22.371A2,2,0,0,0,494.314,243.512Z"/>
            <path fill="#f2f2f2" d="M482.744,485.5a2,2,0,0,0,1.028-3.717L447.93,460.378a2,2,0,0,0-2.051,3.434l35.842,21.409A1.989,1.989,0,0,0,482.744,485.5Z"/>
            <path fill="#f2f2f2" d="M490.294,274.253a1.993,1.993,0,0,0,1.309-.488l8.361-7.241v-5.292l-10.98,9.509a2,2,0,0,0,1.31,3.512Z"/>
            <path fill="#f2f2f2" d="M471.848,336.043a2,2,0,0,0-2.729.746l-12.152,21.3a2,2,0,0,0,3.475,1.982l12.152-21.3A2,2,0,0,0,471.848,336.043Z"/>
            <path fill="#f2f2f2" d="M472.543,367.346a2,2,0,1,0-3.584,1.777l13.428,27.091a2,2,0,0,0,3.584-1.777Z"/>
            <path fill="#f2f2f2" d="M490.955,228.746a2,2,0,0,0,0,4h9.009v-4Z"/>
            <path fill="#f2f2f2" d="M493.6,476.769a2,2,0,0,0-4,0v23.195h4Z"/>
            <path fill="#f2f2f2" d="M312.2,484.224a2.026,2.026,0,0,0-2.031-1.969,2,2,0,0,0-1.969,2.031l.244,15.678h4Z"/>
            <path fill="#f2f2f2" d="M292.825,493.261a2,2,0,1,0-1.938-3.5l-18.422,10.2h8.257Z"/>
            <path fill="#f2f2f2" d="M355,493.228a2,2,0,0,0-2.611-3.03l-11.331,9.766h6.126Z"/>
            <path fill="#f2f2f2" d="M432.582,452.883a2,2,0,1,0-3.845-1.1L414.96,499.964h4.16Z"/>
            <path fill="#f2f2f2" d="M206.684,490.58a2,2,0,0,0-2.719,2.934l6.961,6.45h5.885Z"/>
            <path fill="#f2f2f2" d="M190.952,482.727a2,2,0,1,0-3.927-.758l-3.47,18h4.074Z"/>
            <path fill="#f2f2f2" d="M466.172,490.854a2,2,0,0,0-3.91.844l1.783,8.266h4.093Z"/>
            <path fill="#f2f2f2" d="M241.922,476.165a2,2,0,0,0-4,0v23.8h4Z"/>
            <path fill="#f2f2f2" d="M499.964,443.506l-9.522,20.336a2,2,0,0,0,3.623,1.695l5.9-12.6Z"/>
            <path fill="#f2f2f2" d="M474.961,288.755a2,2,0,1,0-.748,3.93l25.751,4.9v-4.072Z"/>
            <path fill="#f2f2f2" d="M484.823,89.587a2,2,0,1,0-1.338,3.769L499.964,99.2V94.96Z"/>
            <path fill="#f2f2f2" d="M482.312,315.413a2,2,0,0,0,1.475,2.413l16.177,3.9V317.61l-15.239-3.672A2,2,0,0,0,482.312,315.413Z"/>
            <path fill="#f2f2f2" d="M143.2,483.21a2,2,0,0,0-3.234,2.355l10.486,14.4h4.95Z"/>
            <path fill="#f2f2f2" d="M494.321,367.5a2,2,0,1,0-3.084,2.547l8.727,10.562V374.33Z"/>
            <path fill="#f2f2f2" d="M484.074,346.248a2,2,0,1,0-.807,3.918l16.7,3.437v-4.084Z"/>
            <path fill="#f2f2f2" d="M34.213,126.75a2,2,0,1,0-1.465-3.722L0,135.907v4.3Z"/>
            <path fill="#f2f2f2" d="M7.806,11.607a2,2,0,0,0,2,1.98h.02a2,2,0,0,0,1.98-2.019L11.692,0h-4Z"/>
            <path fill="#f2f2f2" d="M7.84,82.07a2,2,0,1,0,.836-3.911L0,76.3v4.09Z"/>
            <path fill="#f2f2f2" d="M23.164,48.214a2.067,2.067,0,0,0,.338.029,2,2,0,0,0,.334-3.972L0,40.213v4.058Z"/>
            <path fill="#f2f2f2" d="M0,24.55l13.987,3.825a1.964,1.964,0,0,0,.528.072,2,2,0,0,0,.526-3.93L0,20.4Z"/>
            <path fill="#f2f2f2" d="M28.327,9.715A2,2,0,0,0,30.87,12.8L46.415,0H40.123Z"/>
            <path fill="#f2f2f2" d="M26.5,84.5a2,2,0,0,0,1.948-2.463l-5-21a2,2,0,1,0-3.891.926l5,21A2,2,0,0,0,26.5,84.5Z"/>
            <path fill="#f2f2f2" d="M4.33,114.965A2,2,0,0,0,1.7,113.934l-1.7.742v4.367L3.3,117.6A2,2,0,0,0,4.33,114.965Z"/>
            <path fill="#f2f2f2" d="M4.737,385.42a2,2,0,0,0,1.542-3.273L0,374.534v6.287l3.193,3.871A1.993,1.993,0,0,0,4.737,385.42Z"/>
            <path fill="#f2f2f2" d="M53.351,493.788a2,2,0,0,0-2.543-3.088L39.56,499.964h6.292Z"/>
            <path fill="#f2f2f2" d="M11.8,427.3a2,2,0,0,0-3.625-1.69L0,443.144v9.468Z"/>
            <path fill="#f2f2f2" d="M81.732,487.827a2,2,0,1,0-3.426-2.064l-8.554,14.2h4.669Z"/>
            <path fill="#f2f2f2" d="M57.634,20.582a2,2,0,1,0,3.426,2.064L74.7,0H70.032Z"/>
            <path fill="#f2f2f2" d="M10.978,400.693a2,2,0,1,0-1.813-3.566L0,401.783v4.487Z"/>
            <path fill="#f2f2f2" d="M143.758,377h20.123a2,2,0,1,0,0-4H143.758a2,2,0,1,0,0,4Z"/>
            <path fill="#f2f2f2" d="M110.629,491.938a2,2,0,0,0-2-1.983h-.016a2,2,0,0,0-1.984,2.017l.066,7.992h4Z"/>
            <path fill="#f2f2f2" d="M35.032,360.806a2,2,0,0,0,.4-3.959L0,349.552v4.084l34.626,7.129A2.012,2.012,0,0,0,35.032,360.806Z"/>
            <path fill="#f2f2f2" d="M481.923,210.748a1.974,1.974,0,0,0,.348-.031A2,2,0,0,0,483.9,208.4l-4.356-24.8a2,2,0,1,0-3.939.692l4.355,24.8A2,2,0,0,0,481.923,210.748Z"/>
            <path fill="#f2f2f2" d="M471.048,247.412a2,2,0,0,0,1.789-2.891l-4.211-8.471a2,2,0,1,0-3.582,1.78l4.211,8.471A2,2,0,0,0,471.048,247.412Z"/>
            <path fill="#f2f2f2" d="M499.964,210.951l-34.706,9.558a2,2,0,1,0,1.063,3.856l33.643-9.264Z"/>
            <path fill="#f2f2f2" d="M491.2,188.968a2,2,0,0,0,.677,2.746l8.092,4.887v-4.673l-6.023-3.637A2,2,0,0,0,491.2,188.968Z"/>
            <path fill="#f2f2f2" d="M424.828,378.251a2,2,0,0,0,1.335-3.49l-8.7-7.785a2,2,0,0,0-2.666,2.98l8.7,7.785A1.988,1.988,0,0,0,424.828,378.251Z"/>
            <path fill="#f2f2f2" d="M363,370.466a2,2,0,0,0,1.706-3.041l-5.724-9.389a2,2,0,0,0-3.416,2.082l5.724,9.389A2,2,0,0,0,363,370.466Z"/>
            <path fill="#f2f2f2" d="M467.381,318.479a1.95,1.95,0,0,0,.4-.04,2,2,0,0,0,1.563-2.356l-17.357-85.807a2,2,0,1,0-3.92.793l17.357,85.807A2,2,0,0,0,467.381,318.479Z"/>
            <path fill="#f2f2f2" d="M481.25,168.607a2,2,0,0,0,2,2h16.714v-4H483.25A2,2,0,0,0,481.25,168.607Z"/>
            <path fill="#f2f2f2" d="M346.081,51.2a2,2,0,0,0,.4,2.8L385.39,83.156a2,2,0,1,0,2.4-3.2L348.881,50.8A2,2,0,0,0,346.081,51.2Z"/>
            <path fill="#f2f2f2" d="M328.909,29.5a2,2,0,0,0,1.2,2.56L365.232,44.7a2,2,0,0,0,1.355-3.764L331.468,28.291A2,2,0,0,0,328.909,29.5Z"/>
            <path fill="#f2f2f2" d="M483.369,151.741,459.291,145.6a2,2,0,0,0-.988,3.876l24.078,6.145a2,2,0,0,0,.988-3.876Z"/>
            <path fill="#f2f2f2" d="M328.241,40.691,268.736,59a2,2,0,1,0,1.175,3.823l59.505-18.309a2,2,0,1,0-1.175-3.823Z"/>
            <path fill="#f2f2f2" d="M372.994,7.793l-16.553,12.27a2,2,0,0,0,2.383,3.214l16.553-12.27a2,2,0,0,0-2.383-3.214Z"/>
            <path fill="#f2f2f2" d="M352.83,424.415a2,2,0,0,0,1.927,1.468,2.045,2.045,0,0,0,.534-.073,2,2,0,0,0,1.395-2.461l-15.343-55.416A2,2,0,1,0,337.488,369Z"/>
            <path fill="#f2f2f2" d="M382.9,61.565a2,2,0,0,0,2,2h61.195a2,2,0,0,0,0-4H384.9A2,2,0,0,0,382.9,61.565Z"/>
            <path fill="#f2f2f2" d="M288.834,19.828,266.82,41.842a2,2,0,1,0,2.828,2.828l22.014-22.014a2,2,0,1,0-2.828-2.828Z"/>
            <path fill="#f2f2f2" d="M389.2,2.183a2,2,0,0,0-2.362,1.557l-7.79,37.978a2,2,0,0,0,1.557,2.361,2.074,2.074,0,0,0,.4.041,2,2,0,0,0,1.957-1.6l7.79-37.978A2,2,0,0,0,389.2,2.183Z"/>
            <path fill="#f2f2f2" d="M176.81,286.76a2,2,0,0,0,2-2V260.77a2,2,0,0,0-4,0v23.99A2,2,0,0,0,176.81,286.76Z"/>
            <path fill="#f2f2f2" d="M175.913,333.991a2,2,0,0,0,2.685-.891l16.384-32.658a2,2,0,0,0-3.576-1.793l-16.384,32.658A2,2,0,0,0,175.913,333.991Z"/>
            <path fill="#f2f2f2" d="M186.679,243.764a2,2,0,0,0-.71,2.737l8.99,15.282a2,2,0,0,0,3.448-2.027l-8.991-15.283A2,2,0,0,0,186.679,243.764Z"/>
            <path fill="#f2f2f2" d="M162.013,279.318a2,2,0,0,0-4,0v40.455a2,2,0,0,0,4,0Z"/>
            <path fill="#f2f2f2" d="M164.743,219.335a2,2,0,0,0,.78-3.843l-40.337-17.034a2,2,0,0,0-1.557,3.685l40.337,17.034A2,2,0,0,0,164.743,219.335Z"/>
            <path fill="#f2f2f2" d="M164.744,244.648a1.992,1.992,0,0,0,1.45-.622l31.938-33.594a2,2,0,1,0-2.9-2.756l-31.939,33.6a2,2,0,0,0,1.449,3.377Z"/>
            <path fill="#f2f2f2" d="M353.1,244.81a2,2,0,0,0-2.694-.862L308.5,265.529a2,2,0,0,0,1.832,3.557L352.239,247.5A2,2,0,0,0,353.1,244.81Z"/>
            <path fill="#f2f2f2" d="M330.712,431.383a2,2,0,0,0,2.226-1.745l2.536-21a2,2,0,1,0-3.971-.481l-2.536,21A2,2,0,0,0,330.712,431.383Z"/>
            <path fill="#f2f2f2" d="M264.26,485.729a2,2,0,0,0,2.934-2.721L246.31,460.49a2,2,0,0,0-2.934,2.721Z"/>
            <path fill="#f2f2f2" d="M332.37,338.7v-6.869a2,2,0,0,0-4,0V338.7a2,2,0,0,0,4,0Z"/>
            <path fill="#f2f2f2" d="M340.06,278.093a2,2,0,0,0-1.71,2.253l8.244,60.225a2,2,0,0,0,1.979,1.729,1.962,1.962,0,0,0,.274-.019,2,2,0,0,0,1.71-2.253L342.313,279.8A2.006,2.006,0,0,0,340.06,278.093Z"/>
            <path fill="#f2f2f2" d="M258.068,428.522a1.949,1.949,0,0,0,.386-.037L311.891,418a2,2,0,1,0-.77-3.926L257.685,424.56a2,2,0,0,0,.383,3.962Z"/>
            <path fill="#f2f2f2" d="M332.6,352.215a2,2,0,0,0-2.782-.507l-31.453,21.764a2,2,0,0,0,2.275,3.289L332.09,355A2,2,0,0,0,332.6,352.215Z"/>
            <path fill="#f2f2f2" d="M326.006,395.937a2.006,2.006,0,0,0-2.223-1.749L279.2,399.509a2,2,0,0,0,.234,3.986,2.174,2.174,0,0,0,.24-.014l44.584-5.321A2,2,0,0,0,326.006,395.937Z"/>
            <path fill="#f2f2f2" d="M196.551,355.353a1.992,1.992,0,0,0,.929-.23l27.87-14.656a2,2,0,0,0-1.861-3.541l-27.871,14.656a2,2,0,0,0,.933,3.771Z"/>
            <path fill="#f2f2f2" d="M164.5,485.727a2,2,0,0,0,3.28-2.291l-24.719-35.374a2,2,0,1,0-3.279,2.292Z"/>
            <path fill="#f2f2f2" d="M99.109,473.214a2,2,0,0,0,2.562-1.2l9.389-25.865a2,2,0,0,0-3.76-1.365l-9.389,25.864A2,2,0,0,0,99.109,473.214Z"/>
            <path fill="#f2f2f2" d="M34.515,304.177a2,2,0,0,0,.378-3.964L0,293.471v4.075l34.133,6.6A2.082,2.082,0,0,0,34.515,304.177Z"/>
            <path fill="#f2f2f2" d="M165.881,445.123V411.979a2,2,0,0,0-4,0v33.144a2,2,0,0,0,4,0Z"/>
            <path fill="#f2f2f2" d="M34.469,335.426a1.992,1.992,0,0,0,.882-.206l34.918-17.2a2,2,0,1,0-1.768-3.587l-34.918,17.2a2,2,0,0,0,.886,3.794Z"/>
            <path fill="#f2f2f2" d="M187.678,398.164a2,2,0,0,0,.121-4l-43.918-2.7a2,2,0,0,0-.246,3.992l43.918,2.7C187.6,398.163,187.637,398.164,187.678,398.164Z"/>
            <path fill="#f2f2f2" d="M265.2,107.5l-41.694,6.673a2,2,0,0,0,.314,3.976,2.035,2.035,0,0,0,.319-.025l41.693-6.674a2,2,0,0,0-.632-3.95Z"/>
            <path fill="#f2f2f2" d="M109.18,312.981a2,2,0,0,0,.651-3.891L70.036,295.381a2,2,0,1,0-1.3,3.781l39.8,13.709A2,2,0,0,0,109.18,312.981Z"/>
            <path fill="#f2f2f2" d="M124.966,387.454a2,2,0,0,0,1.9-2.631l-15.787-47.554a2,2,0,1,0-3.8,1.259l15.786,47.555A2,2,0,0,0,124.966,387.454Z"/>
            <path fill="#f2f2f2" d="M237.768,437.891a2,2,0,0,0-2.82.209l-16.907,19.6a2,2,0,1,0,3.03,2.611l16.906-19.6A2,2,0,0,0,237.768,437.891Z"/>
            <path fill="#f2f2f2" d="M264.5,461.578a2,2,0,0,0,1.69-3.067l-24.7-39.144a2,2,0,0,0-3.383,2.135l24.7,39.144A2,2,0,0,0,264.5,461.578Z"/>
            <path fill="#f2f2f2" d="M208.468,478.431l15.2,7.246a2,2,0,0,0,1.721-3.612l-15.2-7.246a2,2,0,0,0-1.721,3.612Z"/>
            <path fill="#f2f2f2" d="M200.935,440.522c.051,0,.1.006.15.006a2,2,0,0,0,.147-3.994l-20.461-1.521a2,2,0,1,0-.3,3.988Z"/>
            <path fill="#f2f2f2" d="M176.082,464.135a2.192,2.192,0,0,0,.241-.014l25-2.982a2,2,0,0,0-.475-3.973l-25,2.982a2,2,0,0,0,.234,3.987Z"/>
            <path fill="#f2f2f2" d="M213.007,405.128a2,2,0,0,0,1.5-3.324L165.38,346.225a2,2,0,0,0-3,2.648l49.125,55.579A2,2,0,0,0,213.007,405.128Z"/>
            <path fill="#f2f2f2" d="M205.3,422.035a2,2,0,0,0-1.1-2.607l-22.828-9.3a2,2,0,0,0-1.51,3.7l22.829,9.3a2,2,0,0,0,2.607-1.1Z"/>
            <path fill="#f2f2f2" d="M99.791,418.63a2,2,0,0,0,2-2V375.7a2,2,0,0,0-4,0V416.63A2,2,0,0,0,99.791,418.63Z"/>
            <path fill="#f2f2f2" d="M163.933,19.312h-.022l-30.392.322a2,2,0,0,0,.021,4h.022l30.392-.322a2,2,0,0,0-.021-4Z"/>
            <path fill="#f2f2f2" d="M20.057,326.553a2,2,0,0,0,.475-3.943L0,317.574v4.119l19.578,4.8A2.03,2.03,0,0,0,20.057,326.553Z"/>
            <path fill="#f2f2f2" d="M38.951,166.269a2,2,0,0,0,2.805.367l29.865-22.948a2,2,0,1,0-2.437-3.172L39.319,163.464A2,2,0,0,0,38.951,166.269Z"/>
            <path fill="#f2f2f2" d="M67.706,83.293l39.767,34.228a2,2,0,0,0,2.609-3.032L70.316,80.262a2,2,0,1,0-2.61,3.031Z"/>
            <path fill="#f2f2f2" d="M257.989,93.423a2,2,0,0,0,1.93-2.527L246.406,41.421a2,2,0,0,0-3.86,1.054L256.06,91.95A2,2,0,0,0,257.989,93.423Z"/>
            <path fill="#f2f2f2" d="M162.585,50.862a2,2,0,0,0-.047,2.828l29.479,30.468a2,2,0,1,0,2.875-2.782L165.413,50.909A2,2,0,0,0,162.585,50.862Z"/>
            <path fill="#f2f2f2" d="M258.934,22.19,220.355,34.34a2,2,0,1,0,1.2,3.816l38.579-12.151a2,2,0,0,0-1.2-3.815Z"/>
            <path fill="#f2f2f2" d="M67.752,71.471a2,2,0,0,0,2.72.778l27-15a2,2,0,0,0-1.943-3.5l-27,15A2,2,0,0,0,67.752,71.471Z"/>
            <path fill="#f2f2f2" d="M14.626,285.585a2,2,0,0,0,2.78-.527L25.5,273.182a2,2,0,1,0-3.306-2.252L14.1,282.806A2,2,0,0,0,14.626,285.585Z"/>
            <path fill="#f2f2f2" d="M4.428,211.8a2,2,0,0,0-2.456-1.4L0,210.936v4.147l3.025-.825A2,2,0,0,0,4.428,211.8Z"/>
            <path fill="#f2f2f2" d="M17.438,248.693a2,2,0,0,0-2.821-.207L0,261.1v5.283l17.231-14.87A2,2,0,0,0,17.438,248.693Z"/>
            <path fill="#f2f2f2" d="M0,232.746H40.537a2,2,0,1,0,0-4H0Z"/>
            <path fill="#f2f2f2" d="M52.115,53.6A2,2,0,0,0,49.6,54.886l-10,31A2,2,0,0,0,43.4,87.114l10-31A2,2,0,0,0,52.115,53.6Z"/>
            <path fill="#f2f2f2" d="M50.687,134.6a1.991,1.991,0,0,0,2.289-1.662l5.349-33.732a2,2,0,0,0-3.952-.626l-5.348,33.732A2,2,0,0,0,50.687,134.6Z"/>
            <path fill="#f2f2f2" d="M62.759,45.945l-21-17a2,2,0,0,0-2.517,3.11l21,17a2,2,0,0,0,2.517-3.11Z"/>
        </pattern>
    </defs>
    <title>
        Site Pattern
    </title>
    <rect width="100%" height="100%" fill="url(#a)"/>
</svg>
