<svg xmlns="http://www.w3.org/2000/svg" viewBox="0 0 1023.46 535.14"><defs><style>.cls-1{fill:#fff;}.cls-2{fill:#2d3047;}</style></defs><title>PB Logo White</title><g id="Layer_2" data-name="Layer 2"><g id="Слой_2" data-name="Слой 2"><path class="cls-1" d="M506.59,374.49a13.16,13.16,0,0,1-5.19,10.89l-9.58,6.48a16.69,16.69,0,0,0-6.41,10.9l-1.13,12.91a13.17,13.17,0,0,1-7,9.83L379.94,469a97.37,97.37,0,0,0-12.2,6.77l-85.05,57.49a13.57,13.57,0,0,1-12.12.91l-11.41-5.43a14.11,14.11,0,0,0-11.7,0l-11.41,5.43a13.57,13.57,0,0,1-12.12-.91l-85.05-57.49a97.37,97.37,0,0,0-12.2-6.77L29.35,425.5a13.17,13.17,0,0,1-7-9.83l-1.13-12.91a16.69,16.69,0,0,0-6.41-10.9l-9.58-6.48A13.16,13.16,0,0,1,0,374.49l8.75-99.95a98.27,98.27,0,0,0,0-13.94L0,160.65a13.19,13.19,0,0,1,5.19-10.9l9.58-6.47a16.69,16.69,0,0,0,6.41-10.9l1.13-12.91a13.17,13.17,0,0,1,7-9.83l97.33-43.45a97.37,97.37,0,0,0,12.2-6.77L223.93,1.93A13.57,13.57,0,0,1,236.05,1l11.41,5.43a15.16,15.16,0,0,0,5.85,1.27,15.16,15.16,0,0,0,5.85-1.27L270.57,1a13.57,13.57,0,0,1,12.12.91l85.05,57.49a97.37,97.37,0,0,0,12.2,6.77l97.33,43.45a13.17,13.17,0,0,1,7,9.83l1.13,12.91a16.69,16.69,0,0,0,6.41,10.9l9.58,6.47a13.19,13.19,0,0,1,5.19,10.9l-8.75,100a98.27,98.27,0,0,0,0,13.94Z"/><path class="cls-1" d="M575.53,242.9a7,7,0,0,1,1.66-5c1.85-1.94,3.64-2.92,5.36-2.92a9.82,9.82,0,0,1,3.85.57,8.66,8.66,0,0,1,2.12,1.29,5.64,5.64,0,0,1,1.59,2,7.94,7.94,0,0,0,1,1.73,1.49,1.49,0,0,0,1.22.53,1.74,1.74,0,0,0,1.33-.57c.35-.37.93-1,1.72-1.75a12.34,12.34,0,0,1,8.71-3.85,16.37,16.37,0,0,1,13.42,5.84,19.9,19.9,0,0,1,5.17,13.78v32.73a18.76,18.76,0,0,1-5.76,13.85A19.27,19.27,0,0,1,603,306.9H591.23v23.59a6.77,6.77,0,0,1-1.65,5,8.72,8.72,0,0,1-6.23,2.85,6.76,6.76,0,0,1-5-1.66,8.6,8.6,0,0,1-2.85-6.16ZM606.87,254a6.5,6.5,0,0,0-2.22-5.17,7.1,7.1,0,0,0-4.7-1.92,12.29,12.29,0,0,0-3.91.5,8.08,8.08,0,0,0-2.49,1.36,6.22,6.22,0,0,0-2.32,4.9v41.28h7.82a6.86,6.86,0,0,0,5-1.66,8.25,8.25,0,0,0,2.85-6.1Z"/><path class="cls-1" d="M673.3,296.7A5.93,5.93,0,0,1,675,301a5.89,5.89,0,0,1-6,5.93H653.43a19.68,19.68,0,0,1-19.62-19.61V254.76q0-9,6.1-14.38,6.36-5.43,17.49-5.44t17.36,5.44q6.16,5.43,6.16,14.51v18.55a6.76,6.76,0,0,1-1.65,5,8.68,8.68,0,0,1-6.23,2.85H649.52v5.89c0,2.26.55,3.91,1.65,5a8.86,8.86,0,0,0,6.16,2.79h11.73A5.63,5.63,0,0,1,673.3,296.7Zm-8.08-41.94a6.72,6.72,0,0,0-1.66-5,8.66,8.66,0,0,0-6.16-2.92,6.83,6.83,0,0,0-5,1.72,8.62,8.62,0,0,0-2.85,6.17v14.9h15.7Z"/><path class="cls-1" d="M697.93,242.3a5.62,5.62,0,0,1,3.71-5.57,5.86,5.86,0,0,1,2.32-.46h15.63a19.68,19.68,0,0,1,19.62,19.61v44.59a7.19,7.19,0,0,1-4.78,7.09,7.61,7.61,0,0,1-3.18.66,6.89,6.89,0,0,1-2.94-.56,8.64,8.64,0,0,1-2.09-1.29,8.16,8.16,0,0,1-1.46-1.89c-.49-.82-.86-1.42-1.13-1.82a1.38,1.38,0,0,0-1.25-.6,1.79,1.79,0,0,0-1.4.6l-1.06,1.13a14.22,14.22,0,0,1-10.4,4.43,15.87,15.87,0,0,1-12.26-5.83,19.94,19.94,0,0,1-5.16-13.78v-9.14a19.56,19.56,0,0,1,19.61-19.55H723.5v-3.84a6.77,6.77,0,0,0-1.65-5,8.7,8.7,0,0,0-6.17-2.91H704a5.26,5.26,0,0,1-3.78-1.26A6.31,6.31,0,0,1,697.93,242.3Zm9.87,46.18q0,3.38,1.66,5,2.91,2.78,5.36,2.78a13,13,0,0,0,3.88-.46,7.48,7.48,0,0,0,2.48-1.33,6,6,0,0,0,2.32-4.9V271.78h-7.82a6.85,6.85,0,0,0-5,1.66,8.6,8.6,0,0,0-2.85,6.16Z"/><path class="cls-1" d="M781.19,250.38a8.66,8.66,0,0,0-7-3.51c-2.38,0-4.15.58-5.3,1.72a8.62,8.62,0,0,0-2.85,6.17v32.39c0,2.26.55,3.91,1.66,5a8.84,8.84,0,0,0,6.16,2.79h16.3a6.09,6.09,0,0,1,6,6.06,5.95,5.95,0,0,1-1.72,4.21,5.75,5.75,0,0,1-4.24,1.72H770a19.67,19.67,0,0,1-19.61-19.61V254.42q0-8.53,5.76-13.78,6.3-5.7,17.76-5.7,15.44,0,20.61,7.16a7.3,7.3,0,0,1,1.65,4.41,9.65,9.65,0,0,1-.59,3.64,7.71,7.71,0,0,1-1.66,2.49,7,7,0,0,1-5.1,2.25C785.71,254.89,783.18,253.39,781.19,250.38Z"/><path class="cls-1" d="M848.15,296.7a5.92,5.92,0,0,1,1.72,4.27,5.87,5.87,0,0,1-6,5.93H828.27a19.68,19.68,0,0,1-19.61-19.61V254.76q0-9,6.1-14.38,6.36-5.43,17.49-5.44t17.36,5.44q6.17,5.43,6.16,14.51v18.55a6.72,6.72,0,0,1-1.66,5,8.66,8.66,0,0,1-6.22,2.85H824.36v5.89c0,2.26.56,3.91,1.66,5a8.84,8.84,0,0,0,6.16,2.79h11.73A5.63,5.63,0,0,1,848.15,296.7Zm-8.08-41.94a6.76,6.76,0,0,0-1.66-5,8.66,8.66,0,0,0-6.16-2.92,6.87,6.87,0,0,0-5,1.72,8.62,8.62,0,0,0-2.85,6.17v14.9h15.71Z"/><path class="cls-1" d="M866.94,212.88a7.36,7.36,0,0,1,4.77-7.22,7.46,7.46,0,0,1,3.12-.66,7.54,7.54,0,0,1,3.08.63,8,8,0,0,1,2.48,1.69,7.56,7.56,0,0,1,2.32,5.56V239a1.82,1.82,0,0,0,.7,1.69,2.57,2.57,0,0,0,1.32.43,1.56,1.56,0,0,0,1.16-.57c.36-.37.93-1,1.73-1.75a13.35,13.35,0,0,1,9.87-3.91,14.94,14.94,0,0,1,11.86,5.76,21.46,21.46,0,0,1,4.7,14v32.73a19.67,19.67,0,0,1-19.54,19.55H874.89a7,7,0,0,1-5-1.66,8.42,8.42,0,0,1-2.92-6.23Zm31.41,41.81a7.33,7.33,0,0,0-4.77-7.16,10.17,10.17,0,0,0-3.84-.59A6.7,6.7,0,0,0,885.1,249a7.47,7.47,0,0,0-2.39,5.17V295h7.82a6.76,6.76,0,0,0,5-1.65,8.68,8.68,0,0,0,2.85-6.23Z"/><path class="cls-1" d="M925.23,254.42q0-8.94,6.09-14.17,6.36-5.31,17.49-5.31t17.36,5.31q6.17,5.3,6.16,14.31v34.25q0,13.85-13.51,18.09a34.54,34.54,0,0,1-10,1.32,33.85,33.85,0,0,1-10-1.35,21,21,0,0,1-7.42-3.95q-6.23-5.16-6.22-14.31Zm31.4.34a6.76,6.76,0,0,0-1.65-5,8.68,8.68,0,0,0-6.17-2.92,6.84,6.84,0,0,0-5,1.72,8.62,8.62,0,0,0-2.85,6.17v34.45a6.3,6.3,0,0,0,2.25,5.2,9.53,9.53,0,0,0,11.2,0,6.3,6.3,0,0,0,2.25-5.2Z"/><path class="cls-1" d="M1021.81,296.7a6.07,6.07,0,0,1,1.65,4.27,5.86,5.86,0,0,1-1.65,4.21,5.56,5.56,0,0,1-4.18,1.72h-8a19.56,19.56,0,0,1-19.55-19.61V247.93h-7.81a5.83,5.83,0,0,1-2.26-11.2,5.74,5.74,0,0,1,2.26-.46h7.81V222.49a7.34,7.34,0,0,1,4.77-7.29,7.05,7.05,0,0,1,3.05-.66,6.51,6.51,0,0,1,4.91,1.72,8.6,8.6,0,0,1,2.91,6.23v13.78h12a4.84,4.84,0,0,1,3.58,1.26,6.38,6.38,0,0,1,2.12,4.54,5.78,5.78,0,0,1-1.65,4.14,5.41,5.41,0,0,1-4,1.72h-12v39.22a6.37,6.37,0,0,0,1.72,4.91,8.72,8.72,0,0,0,6.1,2.85h4A5.44,5.44,0,0,1,1021.81,296.7Z"/><path class="cls-2" d="M370.56,247.14v70.52a18.67,18.67,0,0,1-18.65,18.65H154.78a18.67,18.67,0,0,1-18.65-18.65V247.14a18.68,18.68,0,0,1,18.65-18.66H351.91A18.68,18.68,0,0,1,370.56,247.14Z"/><path class="cls-2" d="M382.56,276.13v-29a30.69,30.69,0,0,0-30.65-30.66H154.78a30.69,30.69,0,0,0-30.65,30.66v29H80.27c0-.11,0-.22,0-.33a173.2,173.2,0,0,1,158.6-165.47V91.42a28.86,28.86,0,1,1,28.86,0v18.91A173.2,173.2,0,0,1,426.34,275.8c0,.11,0,.22,0,.33Z"/><path class="cls-2" d="M426.4,288.13c0,.7,0,1.4-.08,2.1a173.16,173.16,0,0,1-346,0c0-.7-.06-1.4-.08-2.1h43.91v29.53a30.69,30.69,0,0,0,30.65,30.65H351.91a30.69,30.69,0,0,0,30.65-30.65V288.13Z"/><circle class="cls-1" cx="168.6" cy="298.34" r="8.56"/><circle class="cls-1" cx="185.72" cy="281.22" r="8.56"/><circle class="cls-1" cx="219.97" cy="281.22" r="8.56" transform="translate(-124.02 376.82) rotate(-67.5)"/><circle class="cls-1" cx="237.09" cy="298.34" r="8.56"/><circle class="cls-1" cx="202.84" cy="264.09" r="8.56"/><circle class="cls-1" cx="269.61" cy="298.34" r="8.56"/><circle class="cls-1" cx="286.73" cy="281.22" r="8.56"/><circle class="cls-1" cx="320.97" cy="281.22" r="8.56" transform="translate(-61.67 470.14) rotate(-67.5)"/><circle class="cls-1" cx="338.1" cy="298.34" r="8.56"/><circle class="cls-1" cx="303.85" cy="264.09" r="8.56"/></g></g></svg>