<svg xmlns="http://www.w3.org/2000/svg" width="1140" height="630" viewBox="0 0 1140 630"><defs><style>.cls-1{fill:#15cc79;}.cls-2{fill:#2d3047;}</style></defs><title>PB Pro Logo</title><g id="Text" class='text'><path class="p" d="M633.8,290.3258a6.993,6.993,0,0,1,1.6562-5.0362q2.7832-2.915,5.3672-2.915a9.9206,9.9206,0,0,1,3.8428.5635,8.9075,8.9075,0,0,1,2.12,1.292,5.508,5.508,0,0,1,1.59,2.0537,8.0154,8.0154,0,0,0,.961,1.7226,1.4866,1.4866,0,0,0,1.2256.53,1.7429,1.7429,0,0,0,1.3252-.5635q.53-.5625,1.7226-1.7558a12.3158,12.3158,0,0,1,8.7129-3.8428,16.38,16.38,0,0,1,13.417,5.831,19.9429,19.9429,0,0,1,5.168,13.7813v32.7305a18.74,18.74,0,0,1-5.7637,13.8476,19.2512,19.2512,0,0,1-13.9141,5.7647H649.5034v23.5879a6.7517,6.7517,0,0,1-1.6563,4.9687,8.68,8.68,0,0,1-6.2285,2.85,6.7476,6.7476,0,0,1-4.97-1.6572,8.6083,8.6083,0,0,1-2.8486-6.1611ZM665.14,301.39a6.4925,6.4925,0,0,0-2.22-5.168,7.0963,7.0963,0,0,0-4.7041-1.9209,12.2823,12.2823,0,0,0-3.9092.4961,8.18,8.18,0,0,0-2.4853,1.3584,6.2114,6.2114,0,0,0-2.3184,4.9034v41.2783h7.8184a6.8857,6.8857,0,0,0,4.9687-1.6573,8.2531,8.2531,0,0,0,2.85-6.0957Z"/><path class="p" d="M731.5718,344.1265a5.9443,5.9443,0,0,1,1.7226,4.2735,5.8828,5.8828,0,0,1-5.9629,5.93H711.6948a19.6822,19.6822,0,0,1-19.6123-19.6123V302.1851q0-9.0087,6.0957-14.3769,6.36-5.4332,17.4922-5.4336,10.9965,0,17.3594,5.4336,6.1611,5.433,6.1611,14.51V320.87a6.7511,6.7511,0,0,1-1.6563,4.97,8.673,8.673,0,0,1-6.2275,2.8487H707.7856v5.8964q0,3.3795,1.6563,4.97a8.8542,8.8542,0,0,0,6.1621,2.7832h11.7275A5.6555,5.6555,0,0,1,731.5718,344.1265Zm-8.0831-41.9414a6.7524,6.7524,0,0,0-1.6572-4.9687,8.6789,8.6789,0,0,0-6.1611-2.9151,6.8227,6.8227,0,0,0-5.0361,1.7227,8.6081,8.6081,0,0,0-2.8487,6.1611v14.9082h15.7031Z"/><path class="p" d="M756.1958,289.7291a5.6226,5.6226,0,0,1,3.71-5.5655,5.7316,5.7316,0,0,1,2.3194-.4638h15.6367a19.6822,19.6822,0,0,1,19.6123,19.6123v44.5908a7.1932,7.1932,0,0,1-4.77,7.0889,7.6042,7.6042,0,0,1-3.1807.6631,7.0231,7.0231,0,0,1-2.9482-.5635,9.0554,9.0554,0,0,1-2.0869-1.292,8.17,8.17,0,0,1-1.458-1.8877q-.73-1.2261-1.126-1.8223a1.406,1.406,0,0,0-1.2588-.5967,1.771,1.771,0,0,0-1.3916.5967l-1.0606,1.126a14.2438,14.2438,0,0,1-10.4023,4.44,15.872,15.872,0,0,1-12.2568-5.8311,19.9355,19.9355,0,0,1-5.169-13.7812V326.899a19.5684,19.5684,0,0,1,19.6123-19.5459h11.794V303.51a6.7521,6.7521,0,0,0-1.6563-4.9687,8.6793,8.6793,0,0,0-6.1621-2.9151H762.2251a5.2663,5.2663,0,0,1-3.7764-1.26A6.2936,6.2936,0,0,1,756.1958,289.7291Zm9.872,46.1806q0,3.3795,1.6563,4.97,2.9151,2.7831,5.3672,2.7832a12.9462,12.9462,0,0,0,3.876-.4639,7.6476,7.6476,0,0,0,2.4843-1.3252,5.9691,5.9691,0,0,0,2.3194-4.9033V319.2134h-7.8184a6.85,6.85,0,0,0-5.0351,1.6563,8.6079,8.6079,0,0,0-2.85,6.1621Z"/><path class="p" d="M839.4565,297.8121a8.6615,8.6615,0,0,0-6.957-3.5108q-3.5772,0-5.3,1.7227a8.6057,8.6057,0,0,0-2.85,6.1611v32.3994q0,3.3795,1.6562,4.97a8.8563,8.8563,0,0,0,6.1621,2.7832h16.3a5.5805,5.5805,0,0,1,5.4991,3.7763,5.6518,5.6518,0,0,1,.4638,2.2862,5.9724,5.9724,0,0,1-1.7226,4.207,5.7618,5.7618,0,0,1-4.24,1.7227H828.2593a19.6823,19.6823,0,0,1-19.6124-19.6123V301.8541q0-8.5475,5.7647-13.7813,6.2944-5.6982,17.7568-5.6982,15.438,0,20.6065,7.1562a7.2682,7.2682,0,0,1,1.6562,4.4053,9.5165,9.5165,0,0,1-.5967,3.6445,7.6481,7.6481,0,0,1-1.6562,2.4844,7.0351,7.0351,0,0,1-5.1016,2.2529Q842.4375,302.3179,839.4565,297.8121Z"/><path class="p" d="M906.4194,344.1265a5.9443,5.9443,0,0,1,1.7227,4.2735,5.8829,5.8829,0,0,1-5.9629,5.93H886.5425A19.6822,19.6822,0,0,1,866.93,334.7174V302.1851q0-9.0087,6.0957-14.3769,6.36-5.4332,17.4921-5.4336,10.9967,0,17.3594,5.4336,6.1611,5.433,6.1612,14.51V320.87a6.7515,6.7515,0,0,1-1.6563,4.97,8.6732,8.6732,0,0,1-6.2275,2.8487H882.6333v5.8964q0,3.3795,1.6562,4.97a8.8545,8.8545,0,0,0,6.1621,2.7832h11.7276A5.6553,5.6553,0,0,1,906.4194,344.1265Zm-8.083-41.9414a6.7524,6.7524,0,0,0-1.6572-4.9687,8.6793,8.6793,0,0,0-6.1612-2.9151,6.8228,6.8228,0,0,0-5.0361,1.7227,8.6083,8.6083,0,0,0-2.8486,6.1611v14.9082h15.7031Z"/><path class="p" d="M925.2124,260.3111a7.3626,7.3626,0,0,1,4.77-7.2217,7.4388,7.4388,0,0,1,3.1142-.6631,7.541,7.541,0,0,1,3.0811.63,8.14,8.14,0,0,1,2.4844,1.69,7.5926,7.5926,0,0,1,2.3193,5.5654v26.1055a1.8328,1.8328,0,0,0,.6953,1.6894,2.5225,2.5225,0,0,0,1.3252.4307,1.5733,1.5733,0,0,0,1.1592-.5635q.53-.5625,1.7227-1.7558a13.3859,13.3859,0,0,1,9.873-3.9092,14.9235,14.9235,0,0,1,11.8594,5.7646,21.4035,21.4035,0,0,1,4.7041,13.9805v32.7305A19.6818,19.6818,0,0,1,952.7749,354.33H933.1636a6.9885,6.9885,0,0,1-5.0362-1.6563,8.44,8.44,0,0,1-2.915-6.2285ZM956.6186,302.12a7.32,7.32,0,0,0-4.77-7.1563,10.0116,10.0116,0,0,0-3.8437-.5966,6.7084,6.7084,0,0,0-4.6377,2.0547,7.4773,7.4773,0,0,0-2.3848,5.1679v40.8135H948.8a6.7483,6.7483,0,0,0,4.9687-1.6562,8.6764,8.6764,0,0,0,2.85-6.2276Z"/><path class="p" d="M983.4946,301.8541q0-8.9443,6.0957-14.1787,6.3618-5.3,17.4922-5.3008,10.998,0,17.3594,5.3008,6.1626,5.3011,6.1621,14.3115v34.2549q0,13.8486-13.5166,18.0879a34.4149,34.4149,0,0,1-9.9717,1.3252,33.6147,33.6147,0,0,1-9.9717-1.3584,20.8847,20.8847,0,0,1-7.4209-3.9424q-6.2285-5.168-6.2285-14.3115Zm31.4063.331a6.7521,6.7521,0,0,0-1.6563-4.9687,8.6793,8.6793,0,0,0-6.1621-2.9151,6.8206,6.8206,0,0,0-5.0352,1.7227,8.6057,8.6057,0,0,0-2.85,6.1611v34.4541a6.3039,6.3039,0,0,0,2.253,5.2012,9.5114,9.5114,0,0,0,11.1972,0,6.3067,6.3067,0,0,0,2.253-5.2012Z"/><path class="p" d="M1080.0747,344.1265a6.0742,6.0742,0,0,1,1.6562,4.2735,5.845,5.845,0,0,1-1.6562,4.207,5.5453,5.5453,0,0,1-4.1738,1.7227H1067.95a19.5685,19.5685,0,0,1-19.5469-19.6123V295.3609h-7.8184a5.4866,5.4866,0,0,1-5.3662-3.5781,5.5484,5.5484,0,0,1-.4638-2.252,5.4874,5.4874,0,0,1,3.5771-5.3672,5.57,5.57,0,0,1,2.2529-.4638h7.8184V269.9185a7.3347,7.3347,0,0,1,4.77-7.2881,7.0023,7.0023,0,0,1,3.0479-.663,6.5025,6.5025,0,0,1,4.9043,1.7226,8.5948,8.5948,0,0,1,2.914,6.2285V283.7h11.9922a4.8411,4.8411,0,0,1,3.5781,1.2588,6.3633,6.3633,0,0,1,2.1211,4.539,5.7636,5.7636,0,0,1-1.6562,4.1407,5.3923,5.3923,0,0,1-4.043,1.7226H1064.04v39.2236a6.3629,6.3629,0,0,0,1.7227,4.9034,8.7,8.7,0,0,0,6.0957,2.85h4.043A5.4461,5.4461,0,0,1,1080.0747,344.1265Z"/></g><g id="Head"><path class="cls-1" d="M564.86,421.92a13.1553,13.1553,0,0,1-5.19,10.89l-9.58,6.48a16.69,16.69,0,0,0-6.41,10.9l-1.13,12.91a13.1693,13.1693,0,0,1-7.01,9.83l-97.33,43.45a97.3863,97.3863,0,0,0-12.2,6.77l-85.05,57.49a13.5714,13.5714,0,0,1-12.12.91l-11.41-5.43a14.1084,14.1084,0,0,0-11.7,0l-11.41,5.43a13.5718,13.5718,0,0,1-12.12-.91l-85.05-57.49a97.3863,97.3863,0,0,0-12.2-6.77L87.62,472.93a13.1693,13.1693,0,0,1-7.01-9.83l-1.13-12.91a16.69,16.69,0,0,0-6.41-10.9l-9.58-6.48a13.1558,13.1558,0,0,1-5.19-10.89l8.75-99.95a98.2684,98.2684,0,0,0,0-13.94L58.3,208.08a13.1869,13.1869,0,0,1,5.19-10.9l9.58-6.47a16.691,16.691,0,0,0,6.41-10.9l1.13-12.91a13.1693,13.1693,0,0,1,7.01-9.83l97.33-43.45a97.3481,97.3481,0,0,0,12.2-6.77L282.2,49.36a13.5724,13.5724,0,0,1,12.12-.91l11.41,5.43a14.1084,14.1084,0,0,0,11.7,0l11.41-5.43a13.572,13.572,0,0,1,12.12.91l85.05,57.49a97.3481,97.3481,0,0,0,12.2,6.77l97.33,43.45a13.1693,13.1693,0,0,1,7.01,9.83l1.13,12.91a16.6908,16.6908,0,0,0,6.41,10.9l9.58,6.47a13.1865,13.1865,0,0,1,5.19,10.9l-8.75,99.95a98.2684,98.2684,0,0,0,0,13.94Z"/><path class="cls-2" d="M428.83,294.57v70.52a18.6693,18.6693,0,0,1-18.65,18.65H213.05a18.6693,18.6693,0,0,1-18.65-18.65V294.57a18.6779,18.6779,0,0,1,18.65-18.66H410.18A18.6779,18.6779,0,0,1,428.83,294.57Z"/><path class="cls-2" d="M440.83,323.56V294.57a30.6874,30.6874,0,0,0-30.65-30.66H213.05a30.6874,30.6874,0,0,0-30.65,30.66v28.99H138.54c0-.11.01-.22.01-.33a173.2009,173.2009,0,0,1,158.6-165.47V138.85a28.86,28.86,0,1,1,28.86,0v18.91a173.2006,173.2006,0,0,1,158.6,165.47c0,.11.01.22.01.33Z"/><path class="cls-2" d="M484.67,335.56c-.02.7-.05,1.4-.08,2.1a173.165,173.165,0,0,1-346.02,0c-.03-.7-.06-1.4-.08-2.1H182.4v29.53a30.6853,30.6853,0,0,0,30.65,30.65H410.18a30.6853,30.6853,0,0,0,30.65-30.65V335.56Z"/><circle class="cls-1" cx="226.8658" cy="345.7685" r="8.5614"/><circle class="cls-1" cx="243.9886" cy="328.6458" r="8.5614"/><circle class="cls-1" cx="278.2341" cy="328.6458" r="8.5614" transform="translate(-131.8707 459.9331) rotate(-67.5)"/><circle class="cls-1" cx="295.3569" cy="345.7685" r="8.5614"/><circle class="cls-1" cx="261.1113" cy="311.523" r="8.5614"/><circle class="cls-1" cx="327.8754" cy="345.7685" r="8.5614"/><circle class="cls-1" cx="344.9981" cy="328.6458" r="8.5614"/><circle class="cls-1" cx="379.2437" cy="328.6458" r="8.5614" transform="translate(-69.5158 553.2537) rotate(-67.5)"/><circle class="cls-1" cx="396.3665" cy="345.7685" r="8.5614"/><circle class="cls-1" cx="362.1209" cy="311.523" r="8.5614"/></g></svg>